<?xml version="1.0" standalone="no"?>
<!DOCTYPE svg PUBLIC "-//W3C//DTD SVG 20010904//EN"
 "http://www.w3.org/TR/2001/REC-SVG-20010904/DTD/svg10.dtd">
<svg version="1.0" xmlns="http://www.w3.org/2000/svg"
 width="500.000000pt" height="500.000000pt" viewBox="0 0 500.000000 500.000000"
 preserveAspectRatio="xMidYMid meet">
<metadata>
Created by potrace 1.14, written by Peter Selinger 2001-2017
</metadata>
<g transform="translate(0.000000,500.000000) scale(0.100000,-0.100000)"
fill="#000000" stroke="none">
<path d="M0 2500 l0 -2500 2500 0 2500 0 0 2500 0 2500 -2500 0 -2500 0 0
-2500z m4606 2041 c58 -27 111 -77 142 -135 l27 -51 3 -449 c3 -501 2 -507
-64 -585 -20 -22 -57 -53 -82 -69 l-47 -27 -454 -5 -454 -5 -101 -179 -101
-180 -3 181 -2 181 -163 4 c-154 3 -164 4 -207 30 -56 33 -92 70 -122 128
l-23 45 0 465 0 465 30 54 c16 29 47 68 69 87 75 64 50 62 816 63 655 1 697 0
736 -18z m-3604 -1872 c-4 -235 -4 -247 14 -252 22 -6 325 -11 568 -9 l168 2
-3 253 -4 252 138 0 139 0 -6 -29 c-8 -40 -8 -910 0 -1007 l7 -79 -139 0 -139
0 3 214 4 213 -38 6 c-51 9 -574 9 -654 0 l-63 -6 6 -214 6 -213 -140 0 -141
0 8 43 c9 53 10 978 0 1032 l-7 40 139 0 139 0 -5 -246z m1877 -53 c129 -35
227 -107 279 -204 33 -61 54 -165 45 -215 l-5 -27 -373 0 -374 0 8 -28 c22
-77 68 -128 146 -164 43 -19 66 -22 165 -22 71 1 141 7 183 17 82 20 211 73
228 93 6 8 14 14 18 14 3 0 6 -47 6 -105 l0 -105 -48 -20 c-104 -45 -196 -62
-362 -67 -183 -6 -266 7 -371 56 -85 40 -147 100 -187 180 -31 63 -32 70 -32
186 0 120 0 122 38 197 63 128 173 202 341 229 68 11 228 2 295 -15z m723
-251 c3 -235 4 -241 28 -285 49 -88 176 -117 286 -66 104 48 124 109 124 371
l0 193 68 7 c64 6 135 19 175 31 17 5 18 -13 15 -413 -4 -406 -4 -420 -27
-487 -19 -58 -34 -80 -84 -131 -99 -98 -220 -132 -442 -122 -129 5 -221 23
-319 63 l-61 24 0 100 c0 55 1 100 3 100 1 0 20 -11 42 -25 55 -35 173 -73
267 -86 198 -28 349 30 383 148 6 22 10 93 8 168 l-3 130 -27 -57 c-58 -124
-165 -199 -309 -217 -165 -21 -279 29 -335 147 -27 56 -28 62 -35 307 -4 138
-10 264 -14 281 l-7 32 70 7 c39 4 95 12 124 19 29 7 56 10 60 7 4 -3 8 -114
10 -246z"/>
<path d="M2596 2455 c-77 -27 -126 -85 -141 -167 l-7 -38 252 0 252 0 -7 33
c-18 82 -73 144 -152 173 -49 17 -148 17 -197 -1z"/>
</g>
</svg>
